<svg id="Layer_1" data-name="Layer 1" xmlns="http://www.w3.org/2000/svg" viewBox="0 0 25 25"><defs><style>.cls-1{fill:#000000;}</style></defs><path class="cls-1" d="M22.94,14.71a10.79,10.79,0,0,0-3.85-1.92,6.33,6.33,0,0,0,2.53-5.08,4.84,4.84,0,0,0-4.74-4.92,4.52,4.52,0,0,0-2.22.6l-.12.07.08.11a4.32,4.32,0,0,1,.4.62l.06.1.11,0a3.51,3.51,0,0,1,1.69-.45,3.84,3.84,0,0,1,3.74,3.92c0,2.26-1.54,4.77-3.74,4.77a3.1,3.1,0,0,1-2.2-1l-.11-.11-.09.13c-.13.2-.27.39-.42.58L14,12.2l.09.08a5.2,5.2,0,0,0,.69.55,13.8,13.8,0,0,1,1.31.68l0,0h0c.26,0,.5,0,.74,0a8.85,8.85,0,0,1,5.45,2,2.94,2.94,0,0,1,1.11,2.32v2.72c0,.29-.79.84-3.75,1.07h-.11v.11a1.85,1.85,0,0,1-.14.72l-.07.18h.2c4.88-.33,4.88-1.6,4.88-2.08V17.83A3.94,3.94,0,0,0,22.94,14.71Z"/><path class="cls-1" d="M17,15a12.93,12.93,0,0,0-4.86-2.27A6.84,6.84,0,0,0,15,7.2,5.28,5.28,0,0,0,9.82,1.87,5.27,5.27,0,0,0,4.62,7.2a6.83,6.83,0,0,0,2.86,5.57A12.93,12.93,0,0,0,2.62,15,4.42,4.42,0,0,0,.85,18.59v3.08c0,.66,0,2.43,9,2.43s9-1.77,9-2.43V18.59A4.42,4.42,0,0,0,17,15ZM9.82,2.87A4.28,4.28,0,0,1,14,7.2c0,2.5-1.73,5.28-4.21,5.28S5.62,9.7,5.62,7.2A4.27,4.27,0,0,1,9.82,2.87Zm0,20.23c-6.3,0-8-.94-8-1.43V18.59a3.41,3.41,0,0,1,1.37-2.74,11,11,0,0,1,6.6-2.37,11,11,0,0,1,6.61,2.37,3.42,3.42,0,0,1,1.36,2.74v3.08C17.79,22.16,16.13,23.1,9.82,23.1Z"/></svg>