<svg id="Layer_1" data-name="Layer 1" xmlns="http://www.w3.org/2000/svg" viewBox="0 0 25 25"><defs><style>.cls-1{fill:#000000;}</style></defs><path class="cls-1" d="M6.5,14.05h6c.24,0,.24-.82,0-.82h-6C6.26,13.23,6.26,14.05,6.5,14.05Z"/><path class="cls-1" d="M18.5,10.6H6.5c-.24,0-.24.82,0,.82h12C18.74,11.42,18.74,10.6,18.5,10.6Z"/><path class="cls-1" d="M18.5,5.35H6.5c-.24,0-.24.81,0,.81h12C18.74,6.16,18.74,5.35,18.5,5.35Z"/><path class="cls-1" d="M6.5,8.79h7.29c.23,0,.23-.81,0-.81H6.5C6.26,8,6.26,8.79,6.5,8.79Z"/><path class="cls-1" d="M24.5,19.62H21.93V1.72h1.28V.5H1.79V1.72H3.07v17.9H.5V24.5h24ZM4.36,1.72H20.64v17.9H4.36ZM23.21,23.28H1.79V20.84H23.21Z"/></svg>