<svg id="Layer_1" data-name="Layer 1" xmlns="http://www.w3.org/2000/svg" viewBox="0 0 25 25"><defs><style>.cls-1{fill:#000000;}</style></defs><path class="cls-1" d="M22.19,7.77H18.31v.74h3.88a1.56,1.56,0,0,1,1.56,1.57v8.23a1.56,1.56,0,0,1-1.56,1.57H20.74a.38.38,0,0,0-.38.37v3L17.12,20a.36.36,0,0,0-.26-.11H11.05a1.57,1.57,0,0,1-1.57-1.57V14.44H8.74v3.87a2.3,2.3,0,0,0,2.31,2.31h5.66l3.76,3.77a.39.39,0,0,0,.27.11l.14,0a.37.37,0,0,0,.23-.34V20.62h1.08a2.31,2.31,0,0,0,2.31-2.31V10.08A2.31,2.31,0,0,0,22.19,7.77Z"/><path class="cls-1" d="M4.26,17.23l-.14,0a.36.36,0,0,1-.23-.34v-3.5H2.81A2.32,2.32,0,0,1,.5,11.05V2.81A2.32,2.32,0,0,1,2.81.5H14.92a2.31,2.31,0,0,1,2.31,2.31v8.24a2.31,2.31,0,0,1-2.31,2.31H8.29L4.53,17.12A.35.35,0,0,1,4.26,17.23Zm-1.45-16A1.56,1.56,0,0,0,1.25,2.81v8.24a1.56,1.56,0,0,0,1.56,1.56H4.26a.38.38,0,0,1,.38.37v3l3.24-3.24a.36.36,0,0,1,.26-.11h6.78a1.56,1.56,0,0,0,1.57-1.56V2.81a1.56,1.56,0,0,0-1.57-1.56Z"/></svg>