<svg id="Layer_1" data-name="Layer 1" xmlns="http://www.w3.org/2000/svg" viewBox="0 0 25 25"><defs><style>.cls-1{fill:#000000;}</style></defs><path class="cls-1" d="M18.21,15.54a.4.4,0,0,1-.27-.11L9.57,7.05a.37.37,0,0,1,0-.53L15.66.43a.39.39,0,0,1,.53,0l8.38,8.38a.39.39,0,0,1,0,.53l-6.09,6.09A.4.4,0,0,1,18.21,15.54ZM10.36,6.79l7.85,7.84,5.56-5.56L15.93,1.23Z"/><path class="cls-1" d="M16.69,17.06a.39.39,0,0,1-.27-.11L8.05,8.58a.37.37,0,0,1,0-.53L9.57,6.52a.39.39,0,0,1,.53,0l8.38,8.38a.39.39,0,0,1,0,.53L17,17A.36.36,0,0,1,16.69,17.06ZM8.84,8.31l7.85,7.85,1-1L9.83,7.32Z"/><path class="cls-1" d="M3.15,24.68a2.82,2.82,0,0,1-1.43-5.26L5.64,17a6.24,6.24,0,0,0,2.12-2.09A3.78,3.78,0,0,0,8,11,3.17,3.17,0,0,1,8,8.14a.37.37,0,0,1,.6-.09L17,16.42a.37.37,0,0,1-.09.6A3.17,3.17,0,0,1,14,17a3.78,3.78,0,0,0-3.84.21A6.24,6.24,0,0,0,8,19.36L5.58,23.29a2.92,2.92,0,0,1-1.86,1.33A2.76,2.76,0,0,1,3.15,24.68ZM8.46,9a2.38,2.38,0,0,0,.18,1.7,4.49,4.49,0,0,1-.24,4.56A6.89,6.89,0,0,1,6,17.6L2.11,20.05a2.18,2.18,0,0,0-1,1.38,2.09,2.09,0,0,0,2.46,2.46,2.18,2.18,0,0,0,1.38-1L7.4,19A7,7,0,0,1,9.75,16.6a4.51,4.51,0,0,1,4.57-.24,2.35,2.35,0,0,0,1.69.18Z"/><path class="cls-1" d="M18.21,12.81a1.45,1.45,0,0,1-1-2.48l.62-.62a1.55,1.55,0,0,1-.63-.37,1.47,1.47,0,0,1-.42-1,1.4,1.4,0,0,1,.43-1l1-1a.39.39,0,0,0,0-.55L14.52,2.1a.37.37,0,0,1,0-.53.39.39,0,0,1,.53,0L18.7,5.22a1.15,1.15,0,0,1,0,1.61l-1,1a.65.65,0,0,0-.21.49.7.7,0,0,0,.2.5.74.74,0,0,0,1,0l.76-.76a.37.37,0,0,1,.53.53h0l-2.28,2.28a.67.67,0,0,0-.21.5.68.68,0,0,0,.2.49.72.72,0,0,0,1,0l2.51-2.5a1.15,1.15,0,0,1,1.6,0l.61.6a.39.39,0,0,1,0,.53.37.37,0,0,1-.53,0l-.61-.6a.38.38,0,0,0-.54,0l-2.51,2.5A1.44,1.44,0,0,1,18.21,12.81Z"/></svg>