<svg id="Layer_1" data-name="Layer 1" xmlns="http://www.w3.org/2000/svg" viewBox="0 0 25 25"><defs><style>.cls-1{fill:#000000;} </style></defs><path class="cls-1" d="M23.48,1.31h-22A1.27,1.27,0,0,0,.25,2.58V16.32a1.27,1.27,0,0,0,1.27,1.27h8.77a6.71,6.71,0,0,1-2.64,4.19H6.55a1.15,1.15,0,1,0,0,2.29h11.9a1.15,1.15,0,1,0,0-2.29h-1.1a6.71,6.71,0,0,1-2.64-4.19h8.77a1.27,1.27,0,0,0,1.27-1.27V2.58A1.27,1.27,0,0,0,23.48,1.31Zm-5,21a.59.59,0,0,1,0,1.17H6.55a.59.59,0,0,1,0-1.17Zm-2-.56H8.59a7.81,7.81,0,0,0,2.28-4.19h3.26A7.81,7.81,0,0,0,16.41,21.78Zm7.77-5.46a.7.7,0,0,1-.7.71h-22a.7.7,0,0,1-.7-.71V2.58a.7.7,0,0,1,.7-.7h22a.7.7,0,0,1,.7.7Z"/><path class="cls-1" d="M12.5,14.84a1,1,0,1,0,1,1A1,1,0,0,0,12.5,14.84Zm0,1.35a.4.4,0,0,1-.39-.39.39.39,0,0,1,.78,0A.4.4,0,0,1,12.5,16.19Z"/><path class="cls-1" d="M10.53,9.41a.25.25,0,0,0,.14,0L14.6,7.26A.27.27,0,0,0,14.75,7a.28.28,0,0,0-.15-.25L10.67,4.66a.28.28,0,0,0-.28,0,.29.29,0,0,0-.14.25V9.12a.29.29,0,0,0,.14.25A.33.33,0,0,0,10.53,9.41Zm.28-4L13.87,7,10.81,8.65Z"/><path class="cls-1" d="M18.18,11.49H13.36v-.12a.86.86,0,1,0-1.72,0v.12H6.82a.29.29,0,0,0,0,.57h4.82v.13a.86.86,0,0,0,1.72,0v-.13h4.82a.29.29,0,0,0,0-.57Zm-5.39.7a.29.29,0,1,1-.58,0v-.13h.58Zm0-.7h-.58v-.12a.29.29,0,1,1,.58,0Z"/><path class="cls-1" d="M22.31,2.73H2.69a1,1,0,0,0-1,1v9.84a1,1,0,0,0,1,1H22.31a1,1,0,0,0,1-1V3.72A1,1,0,0,0,22.31,2.73Zm.42,10.83a.42.42,0,0,1-.42.42H2.69a.42.42,0,0,1-.42-.42V3.72a.42.42,0,0,1,.42-.42H22.31a.42.42,0,0,1,.42.42Z"/></svg>